<svg xmlns="http://www.w3.org/2000/svg" viewBox="0 0 300 420">
  <!-- Chamas -->
  <path d="M115 355 Q105 395 150 385 Q155 420 150 385 Q195 395 185 355 Z" fill="white" stroke="#222" stroke-width="2.5" stroke-linejoin="round"/>
  <path d="M125 360 Q120 390 150 382 Q180 390 175 360 Z" fill="white" stroke="#222" stroke-width="2"/>
  <!-- Asa esquerda -->
  <path d="M95 290 Q50 310 45 360 L95 340 Z" fill="white" stroke="#222" stroke-width="3" stroke-linejoin="round"/>
  <!-- Asa direita -->
  <path d="M205 290 Q250 310 255 360 L205 340 Z" fill="white" stroke="#222" stroke-width="3" stroke-linejoin="round"/>
  <!-- Corpo do foguete -->
  <rect x="95" y="150" width="110" height="200" rx="12" fill="white" stroke="#222" stroke-width="3.5"/>
  <!-- Ponta / nariz -->
  <path d="M95 150 Q150 50 205 150 Z" fill="white" stroke="#222" stroke-width="3.5" stroke-linejoin="round"/>
  <!-- Janela / vigia -->
  <circle cx="150" cy="230" r="38" fill="white" stroke="#222" stroke-width="3"/>
  <circle cx="150" cy="230" r="26" fill="white" stroke="#222" stroke-width="2"/>
  <!-- Detalhes do corpo -->
  <line x1="115" y1="290" x2="185" y2="290" stroke="#222" stroke-width="2" stroke-linecap="round"/>
  <line x1="115" y1="310" x2="185" y2="310" stroke="#222" stroke-width="2" stroke-linecap="round"/>
  <!-- Estrelas ao redor -->
  <path d="M40 80 L44 68 L48 80 L60 80 L50 87 L54 100 L44 93 L34 100 L38 87 L28 80 Z" fill="white" stroke="#222" stroke-width="2"/>
  <path d="M248 60 L251 51 L254 60 L263 60 L256 65 L259 74 L251 69 L243 74 L246 65 L239 60 Z" fill="white" stroke="#222" stroke-width="2"/>
  <path d="M265 130 L267 124 L269 130 L275 130 L270 134 L272 140 L267 136 L262 140 L264 134 L259 130 Z" fill="white" stroke="#222" stroke-width="1.5"/>
</svg>
