<svg xmlns="http://www.w3.org/2000/svg" viewBox="0 0 320 440">
  <!-- Antena -->
  <line x1="160" y1="30" x2="160" y2="65" stroke="#222" stroke-width="4" stroke-linecap="round"/>
  <circle cx="160" cy="22" r="12" fill="white" stroke="#222" stroke-width="3"/>
  <!-- Cabeça -->
  <rect x="75" y="65" width="170" height="130" rx="20" fill="white" stroke="#222" stroke-width="3.5"/>
  <!-- Olho esquerdo -->
  <rect x="95" y="90" width="52" height="50" rx="10" fill="white" stroke="#222" stroke-width="2.5"/>
  <circle cx="121" cy="115" r="16" fill="#222"/>
  <circle cx="114" cy="108" r="5" fill="white"/>
  <!-- Olho direito -->
  <rect x="173" y="90" width="52" height="50" rx="10" fill="white" stroke="#222" stroke-width="2.5"/>
  <circle cx="199" cy="115" r="16" fill="#222"/>
  <circle cx="192" cy="108" r="5" fill="white"/>
  <!-- Boca -->
  <rect x="105" y="158" width="110" height="22" rx="11" fill="white" stroke="#222" stroke-width="2.5"/>
  <!-- Dentes -->
  <line x1="127" y1="158" x2="127" y2="180" stroke="#222" stroke-width="2"/>
  <line x1="149" y1="158" x2="149" y2="180" stroke="#222" stroke-width="2"/>
  <line x1="171" y1="158" x2="171" y2="180" stroke="#222" stroke-width="2"/>
  <line x1="193" y1="158" x2="193" y2="180" stroke="#222" stroke-width="2"/>
  <!-- Pescoço -->
  <rect x="140" y="195" width="40" height="20" rx="5" fill="white" stroke="#222" stroke-width="2.5"/>
  <!-- Corpo -->
  <rect x="60" y="215" width="200" height="130" rx="18" fill="white" stroke="#222" stroke-width="3.5"/>
  <!-- Painel do corpo -->
  <rect x="100" y="235" width="120" height="75" rx="10" fill="white" stroke="#222" stroke-width="2"/>
  <!-- Botões do painel -->
  <circle cx="130" cy="255" r="12" fill="white" stroke="#222" stroke-width="2"/>
  <circle cx="160" cy="255" r="12" fill="white" stroke="#222" stroke-width="2"/>
  <circle cx="190" cy="255" r="12" fill="white" stroke="#222" stroke-width="2"/>
  <rect x="115" y="278" width="90" height="16" rx="8" fill="white" stroke="#222" stroke-width="2"/>
  <!-- Braço esquerdo -->
  <rect x="18" y="220" width="42" height="110" rx="18" fill="white" stroke="#222" stroke-width="3"/>
  <circle cx="39" cy="340" r="20" fill="white" stroke="#222" stroke-width="3"/>
  <!-- Braço direito -->
  <rect x="260" y="220" width="42" height="110" rx="18" fill="white" stroke="#222" stroke-width="3"/>
  <circle cx="281" cy="340" r="20" fill="white" stroke="#222" stroke-width="3"/>
  <!-- Perna esquerda -->
  <rect x="88" y="345" width="52" height="80" rx="14" fill="white" stroke="#222" stroke-width="3"/>
  <rect x="78" y="408" width="68" height="28" rx="14" fill="white" stroke="#222" stroke-width="3"/>
  <!-- Perna direita -->
  <rect x="180" y="345" width="52" height="80" rx="14" fill="white" stroke="#222" stroke-width="3"/>
  <rect x="174" y="408" width="68" height="28" rx="14" fill="white" stroke="#222" stroke-width="3"/>
</svg>
