<svg xmlns="http://www.w3.org/2000/svg" viewBox="0 0 400 400">
  <!-- Raios (8 pétalas/raios) -->
  <ellipse cx="200" cy="75" rx="18" ry="42" fill="white" stroke="#222" stroke-width="3"/>
  <ellipse cx="200" cy="75" rx="18" ry="42" fill="white" stroke="#222" stroke-width="3" transform="rotate(45 200 200)"/>
  <ellipse cx="200" cy="75" rx="18" ry="42" fill="white" stroke="#222" stroke-width="3" transform="rotate(90 200 200)"/>
  <ellipse cx="200" cy="75" rx="18" ry="42" fill="white" stroke="#222" stroke-width="3" transform="rotate(135 200 200)"/>
  <ellipse cx="200" cy="75" rx="18" ry="42" fill="white" stroke="#222" stroke-width="3" transform="rotate(22.5 200 200)"/>
  <ellipse cx="200" cy="75" rx="18" ry="42" fill="white" stroke="#222" stroke-width="3" transform="rotate(67.5 200 200)"/>
  <ellipse cx="200" cy="75" rx="18" ry="42" fill="white" stroke="#222" stroke-width="3" transform="rotate(112.5 200 200)"/>
  <ellipse cx="200" cy="75" rx="18" ry="42" fill="white" stroke="#222" stroke-width="3" transform="rotate(157.5 200 200)"/>
  <!-- Círculo central -->
  <circle cx="200" cy="200" r="88" fill="white" stroke="#222" stroke-width="4"/>
  <!-- Olhos -->
  <circle cx="172" cy="185" r="12" fill="#222"/>
  <circle cx="168" cy="181" r="4" fill="white"/>
  <circle cx="228" cy="185" r="12" fill="#222"/>
  <circle cx="224" cy="181" r="4" fill="white"/>
  <!-- Sorriso -->
  <path d="M165 220 Q200 250 235 220" fill="none" stroke="#222" stroke-width="4" stroke-linecap="round"/>
  <!-- Bochechas -->
  <circle cx="152" cy="218" r="14" fill="white" stroke="#222" stroke-width="2"/>
  <circle cx="248" cy="218" r="14" fill="white" stroke="#222" stroke-width="2"/>
</svg>
